<?xml version="1.0" encoding="utf-8"?>
<!-- Generator: Adobe Illustrator 21.0.0, SVG Export Plug-In . SVG Version: 6.00 Build 0)  -->
<svg version="1.1" id="work_1" xmlns="http://www.w3.org/2000/svg" xmlns:xlink="http://www.w3.org/1999/xlink" x="0px" y="0px"
	 viewBox="0 0 800 800" style="enable-background:new 0 0 800 800;" xml:space="preserve">
<style type="text/css">
	.st0{display:none;fill:#FA9528;}
	.st1{opacity:0.35;}
	.st2{fill:#FA9528;}
</style>
<rect class="st0" width="800" height="800"/>
<g class="st1">
	<g>
		<g>
			<path class="st2" d="M201.7,442.3l11.1-11.1V442c0,5,4,9,9,9s9-4,9-9v-10.8l11.1,11.1c3.5,3.5,9.2,3.5,12.7,0s3.5-9.2,0-12.7
				l-23.8-23.8V403h1.3c8.4,0,16.3-3.6,21.8-9.8c5.3-6.1,7.8-14.2,6.7-22.4l-17.7-85.3c-1.4-10.1-5-23.4-21-23.4
				c-6.2,0-10.6,2-13.7,5.1c-4.8,4.8-6.5,12.1-7.3,18.1L183.1,371c-1.1,8,1.4,16.1,6.7,22.2c5.5,6.3,13.4,9.8,21.8,9.8h1.3v2.8
				L189,429.6c-3.5,3.5-3.5,9.2,0,12.7C192.5,445.9,198.2,445.9,201.7,442.3z M194.3,389.2c-4.2-4.8-6.1-11.2-5.3-17.2l7.9-38h9.9
				c1.7,0,3-1.3,3-3s-1.3-3-3-3h-8.7l8.7-41.8c1.8-12.9,6.1-18.2,15-18.2s13.3,5.3,15.1,18.4l17.4,83.6h-14.4
				c-0.8,0-1.6,0.3-2.1,0.9c-0.5,0.5-0.9,1.3-0.9,2.1c0,1.7,1.3,3,3,3h14.9c-0.3,4.8-2.2,9.5-5.4,13.2c-4.3,4.9-10.6,7.8-17.2,7.8
				h-20.5C204.9,397,198.6,394.2,194.3,389.2z M193.2,433.9l24.7-24.7c0.6-0.6,0.9-1.3,0.9-2.1v-4h6v4c0,0.8,0.3,1.6,0.9,2.1
				l24.7,24.7c1.2,1.2,1.2,3.1,0,4.2c-1.2,1.2-3.1,1.2-4.2,0L230,421.9c-0.9-0.9-2.1-1.1-3.3-0.7c-1.1,0.5-1.9,1.6-1.9,2.8v18
				c0,1.7-1.3,3-3,3c-0.8,0-1.6-0.3-2.1-0.9c-0.6-0.6-0.9-1.3-0.9-2.1v-18c0-1.2-0.7-2.3-1.9-2.8c-1.1-0.5-2.4-0.2-3.3,0.7
				l-16.2,16.2c-1.2,1.2-3.1,1.2-4.2,0C192,436.9,192,435,193.2,433.9z"/>
			<path class="st2" d="M227.8,376c1.7,0,3-1.3,3-3s-1.3-3-3-3h-6c-0.8,0-1.6,0.3-2.1,0.9c-0.5,0.5-0.9,1.3-0.9,2.1c0,1.7,1.3,3,3,3
				H227.8z"/>
			<path class="st2" d="M224.8,334c1.7,0,3-1.3,3-3s-1.3-3-3-3h-6c-0.8,0-1.6,0.3-2.1,0.9c-0.5,0.5-0.9,1.3-0.9,2.1c0,1.7,1.3,3,3,3
				H224.8z"/>
			<path class="st2" d="M227.8,292c1.7,0,3-1.3,3-3s-1.3-3-3-3h-12c-0.8,0-1.6,0.3-2.1,0.9c-0.5,0.5-0.9,1.3-0.9,2.1
				c0,1.7,1.3,3,3,3H227.8z"/>
		</g>
	</g>
	<g>
		<g>
			<path class="st2" d="M96.8,293.1c5,0,9-4,9-9v-33.7l2-2l0.9,0.9c5.9,5.9,14.1,9,22.4,8.4c8.1-0.5,15.5-4.5,20.4-11l48-73.2
				c3.7-4.8,7.6-11.2,7.6-17.9c0-4.3-1.6-8.9-6-13.3c-11.3-11.3-23.3-4.4-31.4,1.7l-72.9,47.8c-6.6,5-10.6,12.5-11.1,20.6
				c-0.6,8.3,2.5,16.4,8.4,22.3l0.9,0.9l-2,2H59.4c-5,0-9,4-9,9s4,9,9,9h15.7l-7.6,7.6c-3.5,3.5-3.5,9.2,0,12.7s9.2,3.5,12.7,0
				l7.6-7.6V284C87.8,289,91.9,293.1,96.8,293.1z M112.9,245l-14.5-14.5c-4.7-4.7-7.1-11.2-6.7-17.7c0.3-4.9,2.3-9.6,5.5-13.2
				l10.6,10.6c1.2,1.2,3.1,1.2,4.2,0c0.6-0.6,0.9-1.4,0.9-2.1c0-0.8-0.3-1.5-0.9-2.1l-10.2-10.2l71.4-46.8c10.6-8,17.4-8.7,23.7-2.4
				s5.7,13.1-2.3,23.5l-23.4,35.7l-6.2-6.2c-1.2-1.2-3.1-1.2-4.2,0c-1.2,1.2-1.2,3.1,0,4.2l7,7l-21.3,32.4c-3.7,4.9-9.6,8-15.9,8.4
				C124.1,252.2,117.6,249.7,112.9,245z M96.8,287.1c-1.7,0-3-1.3-3-3v-23c0-1.2-0.7-2.3-1.9-2.8c-1.1-0.5-2.4-0.2-3.3,0.7L76,271.7
				c-0.6,0.6-1.3,0.9-2.1,0.9c-0.8,0-1.6-0.3-2.1-0.9c-1.2-1.2-1.2-3.1,0-4.2l12.7-12.7c0.9-0.9,1.1-2.1,0.7-3.3
				c-0.5-1.1-1.6-1.9-2.8-1.9h-23c-1.7,0-3-1.3-3-3s1.3-3,3-3h35c0.8,0,1.6-0.3,2.1-0.9l2.9-2.8l4.2,4.2l-2.8,2.8
				c-0.6,0.6-0.9,1.3-0.9,2.1v35C99.8,285.7,98.5,287.1,96.8,287.1z"/>
			<path class="st2" d="M116.3,218.7c-1.2-1.2-1.2-3.1,0-4.2c1.2-1.2,3.1-1.2,4.2,0l4.2,4.2c0.6,0.6,0.9,1.4,0.9,2.1
				c0,0.8-0.3,1.5-0.9,2.1c-1.2,1.2-3.1,1.2-4.2,0L116.3,218.7z"/>
			<path class="st2" d="M148.1,191.1c-1.2-1.2-1.2-3.1,0-4.2c1.2-1.2,3.1-1.2,4.2,0l4.2,4.2c0.6,0.6,0.9,1.4,0.9,2.1
				c0,0.8-0.3,1.5-0.9,2.1c-1.2,1.2-3.1,1.2-4.2,0L148.1,191.1z"/>
			<path class="st2" d="M175.7,159.3c-1.2-1.2-1.2-3.1,0-4.2c1.2-1.2,3.1-1.2,4.2,0l8.5,8.5c0.6,0.6,0.9,1.4,0.9,2.1
				c0,0.8-0.3,1.5-0.9,2.1c-1.2,1.2-3.1,1.2-4.2,0L175.7,159.3z"/>
		</g>
	</g>
	<g>
		<g>
			<path class="st2" d="M326.8,605.1c-3.5,3.5-3.5,9.2,0,12.7l23.8,23.8v2.8h-1.3c-8.4,0-16.3,3.6-21.8,9.8
				c-5.3,6.1-7.8,14.2-6.7,22.2l17.8,85.7c0.8,6,2.5,13.3,7.3,18.1c3.1,3.1,7.4,5.1,13.7,5.1c16,0,19.6-13.4,21-23.4l17.7-85.3
				c1.1-8.2-1.3-16.3-6.7-22.4c-5.5-6.3-13.4-9.8-21.8-9.8h-1.3v-2.8l23.8-23.8c3.5-3.5,3.5-9.2,0-12.7s-9.2-3.5-12.7,0l-11.1,11.1
				v-10.8c0-5-4-9-9-9s-9,4-9,9v10.8l-11.1-11.1C336,601.6,330.3,601.6,326.8,605.1z M349.4,650.4h20.5c6.6,0,12.9,2.9,17.2,7.8
				c3.3,3.7,5.1,8.4,5.4,13.2h-14.9c-1.7,0-3,1.3-3,3c0,0.8,0.3,1.6,0.9,2.1c0.5,0.5,1.3,0.9,2.1,0.9H392L374.7,761
				c-1.8,13.1-6.1,18.4-15.1,18.4c-8.9,0-13.3-5.3-15-18.2l-8.7-41.8h8.7c1.7,0,3-1.3,3-3s-1.3-3-3-3h-9.9l-7.9-38
				c-0.8-6.1,1.1-12.4,5.3-17.2C336.4,653.3,342.7,650.4,349.4,650.4z M331.1,609.3c1.2-1.2,3.1-1.2,4.2,0l16.2,16.2
				c0.9,0.9,2.1,1.1,3.3,0.7c1.1-0.5,1.9-1.6,1.9-2.8v-18c0-0.8,0.3-1.6,0.9-2.1c0.6-0.6,1.3-0.9,2.1-0.9c1.7,0,3,1.3,3,3v18
				c0,1.2,0.7,2.3,1.9,2.8c1.1,0.5,2.4,0.2,3.3-0.7l16.2-16.2c1.2-1.2,3.1-1.2,4.2,0c1.2,1.2,1.2,3.1,0,4.2l-24.7,24.7
				c-0.6,0.6-0.9,1.3-0.9,2.1v4h-6v-4c0-0.8-0.3-1.6-0.9-2.1l-24.7-24.7C329.9,612.4,329.9,610.5,331.1,609.3z"/>
			<path class="st2" d="M365.7,671.4c1.7,0,3,1.3,3,3s-1.3,3-3,3h-6c-0.8,0-1.6-0.3-2.1-0.9c-0.5-0.5-0.9-1.3-0.9-2.1
				c0-1.7,1.3-3,3-3H365.7z"/>
			<path class="st2" d="M362.7,713.4c1.7,0,3,1.3,3,3s-1.3,3-3,3h-6c-0.8,0-1.6-0.3-2.1-0.9c-0.5-0.5-0.9-1.3-0.9-2.1
				c0-1.7,1.3-3,3-3H362.7z"/>
			<path class="st2" d="M365.7,755.4c1.7,0,3,1.3,3,3s-1.3,3-3,3h-12c-0.8,0-1.6-0.3-2.1-0.9c-0.5-0.5-0.9-1.3-0.9-2.1
				c0-1.7,1.3-3,3-3H365.7z"/>
		</g>
	</g>
	<g>
		<g>
			<path class="st2" d="M590.7,342v15.7l-7.6-7.6c-3.5-3.5-9.2-3.5-12.7,0s-3.5,9.2,0,12.7l7.6,7.6h-15.7c-5,0-9,4-9,9s4,9,9,9H596
				l2,2l-0.9,0.9c-5.9,5.9-9,14.1-8.4,22.3c0.5,8.1,4.5,15.6,11.1,20.6l72.9,47.8c8.1,6.1,20.1,13,31.4,1.7c4.4-4.4,6-8.9,6-13.3
				c0-6.8-4-13.1-7.6-17.9l-48-73.2c-4.9-6.4-12.3-10.4-20.4-11c-8.3-0.6-16.4,2.5-22.4,8.4l-0.9,0.9l-2-2V342c0-5-4-9-9-9
				S590.7,337.1,590.7,342z M633.6,374.3c6.4,0.4,12.2,3.6,15.9,8.4l21.3,32.4l-7,7c-1.2,1.2-1.2,3.1,0,4.2c1.2,1.2,3.1,1.2,4.2,0
				l6.2-6.2l23.4,35.7c7.9,10.4,8.6,17.2,2.3,23.5s-13.1,5.7-23.7-2.4l-71.4-46.8l10.2-10.2c0.6-0.6,0.9-1.4,0.9-2.1
				c0-0.8-0.3-1.5-0.9-2.1c-1.2-1.2-3.1-1.2-4.2,0l-10.6,10.6c-3.2-3.6-5.2-8.2-5.5-13.2c-0.4-6.5,2-13,6.7-17.7l14.5-14.5
				C620.6,376.3,627,373.9,633.6,374.3z M602.7,342v35c0,0.8,0.3,1.6,0.9,2.1l2.8,2.8l-4.2,4.2l-2.9-2.8c-0.6-0.6-1.3-0.9-2.1-0.9
				h-35c-1.7,0-3-1.3-3-3s1.3-3,3-3h23c1.2,0,2.3-0.7,2.8-1.9c0.5-1.1,0.2-2.4-0.7-3.3l-12.7-12.7c-1.2-1.2-1.2-3.1,0-4.2
				c0.6-0.6,1.3-0.9,2.1-0.9s1.6,0.3,2.1,0.9l12.7,12.7c0.9,0.9,2.1,1.1,3.3,0.7c1.1-0.5,1.9-1.6,1.9-2.8v-23c0-1.7,1.3-3,3-3
				S602.7,340.4,602.7,342z"/>
			<path class="st2" d="M619.2,407.4c-1.2,1.2-1.2,3.1,0,4.2c1.2,1.2,3.1,1.2,4.2,0l4.2-4.2c0.6-0.6,0.9-1.4,0.9-2.1
				c0-0.8-0.3-1.5-0.9-2.1c-1.2-1.2-3.1-1.2-4.2,0L619.2,407.4z"/>
			<path class="st2" d="M651,435c-1.2,1.2-1.2,3.1,0,4.2c1.2,1.2,3.1,1.2,4.2,0l4.2-4.2c0.6-0.6,0.9-1.4,0.9-2.1
				c0-0.8-0.3-1.5-0.9-2.1c-1.2-1.2-3.1-1.2-4.2,0L651,435z"/>
			<path class="st2" d="M678.6,466.8c-1.2,1.2-1.2,3.1,0,4.2c1.2,1.2,3.1,1.2,4.2,0l8.5-8.5c0.6-0.6,0.9-1.4,0.9-2.1
				c0-0.8-0.3-1.5-0.9-2.1c-1.2-1.2-3.1-1.2-4.2,0L678.6,466.8z"/>
		</g>
	</g>
	<g>
		<g>
			<path class="st2" d="M735.7,691.7l11.1-11.1v10.8c0,5,4,9,9,9s9-4,9-9v-10.8l11.1,11.1c3.5,3.5,9.2,3.5,12.7,0s3.5-9.2,0-12.7
				l-23.8-23.8v-2.8h1.3c8.4,0,16.3-3.6,21.8-9.8c5.3-6.1,7.8-14.2,6.7-22.4l-17.7-85.3c-1.4-10.1-5-23.4-21-23.4
				c-6.2,0-10.6,2-13.7,5.1c-4.8,4.8-6.5,12.1-7.3,18.1l-17.8,85.7c-1.1,8,1.4,16.1,6.7,22.2c5.5,6.3,13.4,9.8,21.8,9.8h1.3v2.8
				L723,678.9c-3.5,3.5-3.5,9.2,0,12.7C726.5,695.2,732.2,695.2,735.7,691.7z M728.3,638.5c-4.2-4.8-6.1-11.2-5.3-17.2l7.9-38h10
				c1.7,0,3-1.3,3-3s-1.3-3-3-3h-8.7l8.7-41.8c1.8-12.9,6.1-18.2,15-18.2s13.3,5.3,15.1,18.4l17.4,83.6H774c-0.8,0-1.6,0.3-2.1,0.9
				c-0.5,0.5-0.9,1.3-0.9,2.1c0,1.7,1.3,3,3,3h14.9c-0.3,4.8-2.2,9.5-5.4,13.2c-4.3,4.9-10.6,7.8-17.2,7.8h-20.5
				C738.9,646.3,732.6,643.5,728.3,638.5z M727.2,683.2l24.7-24.7c0.6-0.6,0.9-1.3,0.9-2.1v-4h6v4c0,0.8,0.3,1.6,0.9,2.1l24.7,24.7
				c1.2,1.2,1.2,3.1,0,4.2c-1.2,1.2-3.1,1.2-4.2,0L764,671.2c-0.9-0.9-2.1-1.1-3.3-0.7c-1.1,0.5-1.9,1.6-1.9,2.8v18c0,1.7-1.3,3-3,3
				c-0.8,0-1.6-0.3-2.1-0.9c-0.6-0.6-0.9-1.3-0.9-2.1v-18c0-1.2-0.7-2.3-1.9-2.8c-1.1-0.5-2.4-0.2-3.3,0.7l-16.2,16.2
				c-1.2,1.2-3.1,1.2-4.2,0C726.1,686.2,726.1,684.3,727.2,683.2z"/>
			<path class="st2" d="M761.8,625.3c1.7,0,3-1.3,3-3s-1.3-3-3-3h-6c-0.8,0-1.6,0.3-2.1,0.9c-0.5,0.5-0.9,1.3-0.9,2.1
				c0,1.7,1.3,3,3,3H761.8z"/>
			<path class="st2" d="M758.8,583.3c1.7,0,3-1.3,3-3s-1.3-3-3-3h-6c-0.8,0-1.6,0.3-2.1,0.9c-0.5,0.5-0.9,1.3-0.9,2.1
				c0,1.7,1.3,3,3,3H758.8z"/>
			<path class="st2" d="M761.8,541.3c1.7,0,3-1.3,3-3s-1.3-3-3-3h-12c-0.8,0-1.6,0.3-2.1,0.9c-0.5,0.5-0.9,1.3-0.9,2.1
				c0,1.7,1.3,3,3,3H761.8z"/>
		</g>
	</g>
	<g>
		<g>
			<path class="st2" d="M723,110.6h-23.6l11.4-11.4c5.3-5.3,5.3-13.8,0-19.1c-5.3-5.3-13.8-5.3-19.1,0l-11.4,11.4V68
				c0-7.4-6.1-13.5-13.5-13.5s-13.5,6.1-13.5,13.5v50.6l-3,3l-1.4-1.4c-8.9-8.9-21.1-13.5-33.5-12.7c-12.2,0.8-23.3,6.8-30.8,16.7
				l-71.7,109.3c-9.2,12.1-19.5,30.2-2.6,47.1c6.6,6.6,13.4,9.1,19.9,9.1c10.2,0,19.7-6,26.9-11.5L667,206.1
				c9.6-7.3,15.6-18.5,16.4-30.7c0.8-12.4-3.8-24.6-12.7-33.5l-1.4-1.4l3-3H723c7.4,0,13.5-6.1,13.5-13.5S730.4,110.6,723,110.6z
				 M674.5,174.8c-0.6,9.6-5.4,18.3-12.7,23.9l-48.6,31.9L602.6,220c-1.8-1.8-4.6-1.8-6.4,0c-1.8,1.8-1.8,4.6,0,6.4l9.2,9.2
				L552,270.8c-15.6,11.9-25.8,12.8-35.3,3.4c-9.5-9.5-8.5-19.7,3.6-35.5l70.2-107.1l15.3,15.3c0.9,0.9,2,1.3,3.2,1.3
				s2.3-0.4,3.2-1.3c1.8-1.8,1.8-4.6,0-6.4l-15.8-15.8c5.4-4.8,12.3-7.8,19.8-8.3c9.8-0.6,19.5,3,26.6,10l21.8,21.8
				C671.5,155.3,675.1,165,674.5,174.8z M723,128.6h-52.4c-1.2,0-2.3,0.5-3.2,1.3l-4.3,4.3l-6.4-6.4l4.3-4.3c0.8-0.8,1.3-2,1.3-3.2
				V68c0-2.5,2-4.5,4.5-4.5s4.5,2,4.5,4.5v34.4c0,1.8,1.1,3.5,2.8,4.2s3.6,0.3,4.9-1l19.1-19.1c1.8-1.8,4.6-1.8,6.4,0
				c0.8,0.9,1.3,2,1.3,3.2s-0.5,2.3-1.3,3.2L685.4,112c-1.3,1.3-1.7,3.2-1,4.9c0.7,1.7,2.3,2.8,4.2,2.8H723c2.5,0,4.5,2,4.5,4.5
				C727.5,126.6,725.5,128.6,723,128.6z"/>
			<path class="st2" d="M624.9,153.3c-1.8-1.8-4.6-1.8-6.4,0c-1.8,1.8-1.8,4.6,0,6.4l6.4,6.4c0.9,0.9,2,1.3,3.2,1.3s2.3-0.4,3.2-1.3
				c1.8-1.8,1.8-4.6,0-6.4L624.9,153.3z"/>
			<path class="st2" d="M583.5,201c-1.8-1.8-4.6-1.8-6.4,0c-1.8,1.8-1.8,4.6,0,6.4l6.4,6.4c0.9,0.9,2,1.3,3.2,1.3s2.3-0.4,3.2-1.3
				c1.8-1.8,1.8-4.6,0-6.4L583.5,201z"/>
			<path class="st2" d="M535.8,242.4c-1.8-1.8-4.6-1.8-6.4,0c-1.8,1.8-1.8,4.6,0,6.4l12.7,12.7c0.9,0.9,2,1.3,3.2,1.3
				s2.3-0.4,3.2-1.3c1.8-1.8,1.8-4.6,0-6.4L535.8,242.4z"/>
		</g>
	</g>
	<g>
		<g>
			<path class="st2" d="M315.3,180v23.6l-11.4-11.4c-5.3-5.3-13.8-5.3-19.1,0c-5.3,5.3-5.3,13.8,0,19.1l11.4,11.4h-23.6
				c-7.4,0-13.5,6.1-13.5,13.5s6.1,13.5,13.5,13.5h50.6l3,3l-1.4,1.4c-8.9,8.9-13.5,21.1-12.7,33.5c0.8,12.2,6.8,23.3,16.7,30.8
				L438.2,390c12.1,9.2,30.2,19.5,47.1,2.6c6.6-6.6,9.1-13.4,9.1-19.9c0-10.2-6-19.7-11.5-26.9L410.8,236
				c-7.3-9.6-18.5-15.6-30.7-16.4c-12.4-0.8-24.6,3.8-33.5,12.7l-1.4,1.4l-3-3V180c0-7.4-6.1-13.5-13.5-13.5
				C321.4,166.5,315.3,172.5,315.3,180z M379.5,228.5c9.6,0.6,18.3,5.4,23.9,12.7l31.9,48.6l-10.6,10.6c-1.8,1.8-1.8,4.6,0,6.4
				s4.6,1.8,6.4,0l9.2-9.2l35.1,53.5c11.9,15.6,12.8,25.8,3.4,35.3c-9.5,9.5-19.7,8.5-35.5-3.6l-107.1-70.2l15.3-15.3
				c0.9-0.9,1.3-2,1.3-3.2s-0.4-2.3-1.3-3.2c-1.8-1.8-4.6-1.8-6.4,0l-15.8,15.8c-4.8-5.4-7.8-12.3-8.3-19.8c-0.6-9.8,3-19.5,10-26.6
				l21.8-21.8C360,231.5,369.7,227.8,379.5,228.5z M333.3,180v52.4c0,1.2,0.5,2.3,1.3,3.2l4.3,4.3l-6.4,6.4l-4.3-4.3
				c-0.8-0.8-2-1.3-3.2-1.3h-52.4c-2.5,0-4.5-2-4.5-4.5s2-4.5,4.5-4.5H307c1.8,0,3.5-1.1,4.2-2.8s0.3-3.6-1-4.9l-19.1-19.1
				c-1.8-1.8-1.8-4.6,0-6.4c0.9-0.8,2-1.3,3.2-1.3s2.3,0.5,3.2,1.3l19.1,19.1c1.3,1.3,3.2,1.7,4.9,1c1.7-0.7,2.8-2.3,2.8-4.2V180
				c0-2.5,2-4.5,4.5-4.5S333.3,177.5,333.3,180z"/>
			<path class="st2" d="M358,278.1c-1.8,1.8-1.8,4.6,0,6.4s4.6,1.8,6.4,0l6.4-6.4c0.9-0.9,1.3-2,1.3-3.2s-0.4-2.3-1.3-3.2
				c-1.8-1.8-4.6-1.8-6.4,0L358,278.1z"/>
			<path class="st2" d="M405.7,319.4c-1.8,1.8-1.8,4.6,0,6.4s4.6,1.8,6.4,0l6.4-6.4c0.9-0.9,1.3-2,1.3-3.2s-0.4-2.3-1.3-3.2
				c-1.8-1.8-4.6-1.8-6.4,0L405.7,319.4z"/>
			<path class="st2" d="M447.1,367.1c-1.8,1.8-1.8,4.6,0,6.4s4.6,1.8,6.4,0l12.7-12.7c0.9-0.9,1.3-2,1.3-3.2s-0.4-2.3-1.3-3.2
				c-1.8-1.8-4.6-1.8-6.4,0L447.1,367.1z"/>
		</g>
	</g>
	<g>
		<g>
			<path class="st2" d="M519.6,102.5l-16.7-16.7H519c7.4,0,13.5-6.1,13.5-13.5s-6.1-13.5-13.5-13.5h-16.1l16.7-16.7
				c5.3-5.3,5.3-13.8,0-19.1s-13.8-5.3-19.1,0l-35.8,35.8h-4.2v-1.9c0-12.6-5.4-24.5-14.8-32.7c-9.2-8-21.3-11.7-33.6-10l-128,26.6
				c-15.1,2-35.1,7.5-35.1,31.5c0,9.4,3.1,15.9,7.7,20.5c7.2,7.2,18.1,9.7,27.1,10.9l128.6,26.7c12,1.6,24.1-2,33.3-10
				c9.4-8.2,14.8-20.1,14.8-32.7v-1.9h4.2l35.8,35.8c5.3,5.3,13.8,5.3,19.1,0C524.8,116.3,524.8,107.7,519.6,102.5z M439.9,113.6
				c-7.2,6.3-16.8,9.2-25.9,8l-57-11.9V94.8c0-2.5-2-4.5-4.5-4.5s-4.5,2-4.5,4.5v13.1l-62.7-13C266,92.2,258,85.7,258,72.3
				s7.9-19.9,27.6-22.6l125.4-26v21.6c0,1.2,0.5,2.4,1.3,3.2s1.9,1.3,3.2,1.3c2.5,0,4.5-2,4.5-4.5V22.9c7.2,0.4,14.2,3.2,19.8,8.1
				c7.4,6.5,11.7,15.9,11.7,25.9v30.8C451.5,97.7,447.3,107.1,439.9,113.6z M506.9,115.2l-37.1-37.1c-0.8-0.8-2-1.3-3.2-1.3h-6v-9h6
				c1.2,0,2.3-0.5,3.2-1.3l37.1-37.1c1.8-1.8,4.6-1.8,6.4,0s1.8,4.6,0,6.4L489,60.1c-1.3,1.3-1.7,3.2-1,4.9s2.3,2.8,4.2,2.8h27
				c2.5,0,4.5,2,4.5,4.5c0,1.2-0.5,2.3-1.3,3.2c-0.8,0.8-2,1.3-3.2,1.3h-27c-1.8,0-3.5,1.1-4.2,2.8c-0.7,1.7-0.3,3.6,1,4.9
				l24.3,24.3c1.8,1.8,1.8,4.6,0,6.4C511.5,117,508.6,117,506.9,115.2z"/>
			<path class="st2" d="M420,63.3c0-2.5-2-4.5-4.5-4.5s-4.5,2-4.5,4.5v9c0,1.2,0.5,2.4,1.3,3.2c0.8,0.8,1.9,1.3,3.2,1.3
				c2.5,0,4.5-2,4.5-4.5V63.3z"/>
			<path class="st2" d="M357,67.8c0-2.5-2-4.5-4.5-4.5s-4.5,2-4.5,4.5v9c0,1.2,0.5,2.4,1.3,3.2c0.8,0.8,1.9,1.3,3.2,1.3
				c2.5,0,4.5-2,4.5-4.5V67.8z"/>
			<path class="st2" d="M294,63.3c0-2.5-2-4.5-4.5-4.5s-4.5,2-4.5,4.5v18c0,1.2,0.5,2.4,1.3,3.2c0.8,0.8,1.9,1.3,3.2,1.3
				c2.5,0,4.5-2,4.5-4.5V63.3z"/>
		</g>
	</g>
	<g>
		<g>
			<path class="st2" d="M329.2,472.1l16.7,16.7h-16.1c-7.4,0-13.5,6.1-13.5,13.5s6.1,13.5,13.5,13.5h16.1l-16.7,16.7
				c-5.3,5.3-5.3,13.8,0,19.1s13.8,5.3,19.1,0l35.8-35.8h4.2v1.9c0,12.6,5.4,24.5,14.8,32.7c9.2,8,21.3,11.7,33.6,10l128-26.6
				c15.1-2,35.1-7.5,35.1-31.5c0-9.4-3.1-15.9-7.7-20.5c-7.2-7.2-18.1-9.7-27.1-10.9l-128.6-26.7c-12-1.6-24.1,2-33.3,10
				c-9.4,8.2-14.8,20.1-14.8,32.7v1.9H384L348.3,453c-5.3-5.3-13.8-5.3-19.1,0C323.9,458.3,323.9,466.8,329.2,472.1z M408.9,461
				c7.2-6.3,16.8-9.2,25.9-8l56.9,11.8v14.9c0,2.5,2,4.5,4.5,4.5s4.5-2,4.5-4.5v-13.1l62.7,13c19.4,2.6,27.3,9.2,27.3,22.5
				c0,13.4-7.9,19.9-27.6,22.6l-125.4,26v-21.6c0-1.2-0.5-2.4-1.3-3.2s-1.9-1.3-3.2-1.3c-2.5,0-4.5,2-4.5,4.5v22.4
				c-7.2-0.4-14.2-3.2-19.8-8.1c-7.4-6.5-11.7-15.9-11.7-25.9v-30.8C397.2,476.9,401.5,467.5,408.9,461z M341.9,459.4l37.1,37.1
				c0.8,0.8,2,1.3,3.2,1.3h6v9h-6c-1.2,0-2.3,0.5-3.2,1.3l-37.1,37.1c-1.8,1.8-4.6,1.8-6.4,0s-1.8-4.6,0-6.4l24.3-24.3
				c1.3-1.3,1.7-3.2,1-4.9c-0.7-1.7-2.3-2.8-4.2-2.8h-27c-2.5,0-4.5-2-4.5-4.5c0-1.2,0.5-2.3,1.3-3.2c0.8-0.8,2-1.3,3.2-1.3h27
				c1.8,0,3.5-1.1,4.2-2.8c0.7-1.7,0.3-3.6-1-4.9l-24.3-24.3c-1.8-1.8-1.8-4.6,0-6.4S340.2,457.6,341.9,459.4z"/>
			<path class="st2" d="M428.7,511.3c0,2.5,2,4.5,4.5,4.5s4.5-2,4.5-4.5v-9c0-1.2-0.5-2.4-1.3-3.2c-0.8-0.8-1.9-1.3-3.2-1.3
				c-2.5,0-4.5,2-4.5,4.5V511.3z"/>
			<path class="st2" d="M491.7,506.8c0,2.5,2,4.5,4.5,4.5s4.5-2,4.5-4.5v-9c0-1.2-0.5-2.4-1.3-3.2c-0.8-0.8-1.9-1.3-3.2-1.3
				c-2.5,0-4.5,2-4.5,4.5V506.8z"/>
			<path class="st2" d="M554.7,511.3c0,2.5,2,4.5,4.5,4.5s4.5-2,4.5-4.5v-18c0-1.2-0.5-2.4-1.3-3.2c-0.8-0.8-1.9-1.3-3.2-1.3
				c-2.5,0-4.5,2-4.5,4.5V511.3z"/>
		</g>
	</g>
	<g>
		<g>
			<path class="st2" d="M456.7,740.4h23.6l-11.4,11.4c-5.3,5.3-5.3,13.8,0,19.1s13.8,5.3,19.1,0l11.4-11.4V783
				c0,7.4,6.1,13.5,13.5,13.5c7.4,0,13.5-6.1,13.5-13.5v-50.6l3-3l1.4,1.4c8.9,8.9,21.1,13.5,33.5,12.7c12.2-0.8,23.3-6.8,30.8-16.7
				l71.7-109.3c9.2-12.1,19.5-30.2,2.6-47.1c-6.6-6.6-13.4-9.1-19.9-9.1c-10.2,0-19.7,6-26.9,11.5l-109.8,72.1
				c-9.6,7.3-15.6,18.5-16.4,30.7c-0.8,12.4,3.8,24.6,12.7,33.5l1.4,1.4l-3,3h-50.6c-7.4,0-13.5,6.1-13.5,13.5
				S449.3,740.4,456.7,740.4z M505.2,676.1c0.6-9.6,5.4-18.3,12.7-23.9l48.6-31.9l10.6,10.6c1.8,1.8,4.6,1.8,6.4,0
				c1.8-1.8,1.8-4.6,0-6.4l-9.2-9.2l53.5-35.1c15.6-11.9,25.8-12.8,35.3-3.4c9.5,9.5,8.5,19.7-3.6,35.5l-70.2,107.1L574,704.1
				c-0.9-0.9-2-1.3-3.2-1.3s-2.3,0.4-3.2,1.3c-1.8,1.8-1.8,4.6,0,6.4l15.8,15.8c-5.4,4.8-12.3,7.8-19.8,8.3c-9.8,0.6-19.5-3-26.6-10
				l-21.8-21.8C508.2,695.7,504.6,686,505.2,676.1z M456.7,722.4h52.4c1.2,0,2.3-0.5,3.2-1.3l4.3-4.3l6.4,6.4l-4.3,4.3
				c-0.8,0.8-1.3,2-1.3,3.2V783c0,2.5-2,4.5-4.5,4.5s-4.5-2-4.5-4.5v-34.4c0-1.8-1.1-3.5-2.8-4.2c-1.7-0.7-3.6-0.3-4.9,1l-19.1,19.1
				c-1.8,1.8-4.6,1.8-6.4,0c-0.8-0.9-1.3-2-1.3-3.2s0.5-2.3,1.3-3.2l19.1-19.1c1.3-1.3,1.7-3.2,1-4.9s-2.3-2.8-4.2-2.8h-34.4
				c-2.5,0-4.5-2-4.5-4.5C452.2,724.4,454.3,722.4,456.7,722.4z"/>
			<path class="st2" d="M554.8,697.7c1.8,1.8,4.6,1.8,6.4,0s1.8-4.6,0-6.4l-6.4-6.4c-0.9-0.9-2-1.3-3.2-1.3s-2.3,0.4-3.2,1.3
				c-1.8,1.8-1.8,4.6,0,6.4L554.8,697.7z"/>
			<path class="st2" d="M596.2,650c1.8,1.8,4.6,1.8,6.4,0c1.8-1.8,1.8-4.6,0-6.4l-6.4-6.4c-0.9-0.9-2-1.3-3.2-1.3s-2.3,0.4-3.2,1.3
				c-1.8,1.8-1.8,4.6,0,6.4L596.2,650z"/>
			<path class="st2" d="M643.9,608.6c1.8,1.8,4.6,1.8,6.4,0c1.8-1.8,1.8-4.6,0-6.4l-12.7-12.7c-0.9-0.9-2-1.3-3.2-1.3
				s-2.3,0.4-3.2,1.3c-1.8,1.8-1.8,4.6,0,6.4L643.9,608.6z"/>
		</g>
	</g>
	<g>
		<g>
			<path class="st2" d="M18.2,678.1h23.6l-11.4,11.4c-5.3,5.3-5.3,13.8,0,19.1s13.8,5.3,19.1,0l11.4-11.4v23.6
				c0,7.4,6.1,13.5,13.5,13.5s13.5-6.1,13.5-13.5v-50.6l3-3l1.4,1.4c8.9,8.9,21.1,13.5,33.5,12.7c12.2-0.8,23.3-6.8,30.8-16.7
				l71.7-109.3c9.2-12.1,19.5-30.2,2.6-47.1c-6.6-6.6-13.4-9.1-19.9-9.1c-10.2,0-19.7,6-26.9,11.5l-109.9,72
				c-9.6,7.3-15.6,18.5-16.4,30.7c-0.8,12.4,3.8,24.6,12.7,33.5l1.4,1.4l-3,3H18.2c-7.4,0-13.5,6.1-13.5,13.5S10.7,678.1,18.2,678.1
				z M66.7,613.9c0.6-9.6,5.4-18.3,12.7-23.9l48.6-32l10.6,10.6c1.8,1.8,4.6,1.8,6.4,0s1.8-4.6,0-6.4l-9.2-9.2l53.5-35.1
				c15.6-11.9,25.8-12.8,35.3-3.4c9.5,9.5,8.5,19.7-3.6,35.5l-70.2,107.1l-15.3-15.3c-0.9-0.9-2-1.3-3.2-1.3s-2.3,0.4-3.2,1.3
				c-1.8,1.8-1.8,4.6,0,6.4l15.8,15.8c-5.4,4.8-12.3,7.8-19.8,8.3c-9.8,0.6-19.5-3-26.6-10l-21.8-21.8
				C69.7,633.4,66,623.7,66.7,613.9z M18.2,660.1h52.4c1.2,0,2.3-0.5,3.2-1.3l4.3-4.3l6.4,6.4l-4.3,4.3c-0.8,0.8-1.3,2-1.3,3.2v52.4
				c0,2.5-2,4.5-4.5,4.5s-4.5-2-4.5-4.5v-34.4c0-1.8-1.1-3.5-2.8-4.2c-1.7-0.7-3.6-0.3-4.9,1l-19.1,19.1c-1.8,1.8-4.6,1.8-6.4,0
				c-0.8-0.9-1.3-2-1.3-3.2s0.5-2.3,1.3-3.2l19.1-19.1c1.3-1.3,1.7-3.2,1-4.9s-2.3-2.8-4.2-2.8H18.2c-2.5,0-4.5-2-4.5-4.5
				S15.7,660.1,18.2,660.1z"/>
			<path class="st2" d="M116.3,635.4c1.8,1.8,4.6,1.8,6.4,0s1.8-4.6,0-6.4l-6.4-6.4c-0.9-0.9-2-1.3-3.2-1.3s-2.3,0.4-3.2,1.3
				c-1.8,1.8-1.8,4.6,0,6.4L116.3,635.4z"/>
			<path class="st2" d="M157.6,587.7c1.8,1.8,4.6,1.8,6.4,0c1.8-1.8,1.8-4.6,0-6.4l-6.4-6.4c-0.9-0.9-2-1.3-3.2-1.3
				s-2.3,0.4-3.2,1.3c-1.8,1.8-1.8,4.6,0,6.4L157.6,587.7z"/>
			<path class="st2" d="M205.4,546.3c1.8,1.8,4.6,1.8,6.4,0c1.8-1.8,1.8-4.6,0-6.4L199,527.2c-0.9-0.9-2-1.3-3.2-1.3
				s-2.3,0.4-3.2,1.3c-1.8,1.8-1.8,4.6,0,6.4L205.4,546.3z"/>
		</g>
	</g>
	<g>
		<g>
			<path class="st2" d="M212.6,0c-1.5,7.9-5.9,15.1-12.1,19.8l-48.6,31.9l-10.6-10.6c-1.8-1.8-4.6-1.8-6.4,0c-1.8,1.8-1.8,4.6,0,6.4
				l9.2,9.2L90.7,91.9c-15.6,11.9-25.8,12.8-35.3,3.4c-9.5-9.5-8.5-19.7,3.6-35.5L98.2,0H87.4L51.6,54.6
				c-9.2,12.1-19.5,30.2-2.6,47.1c6.6,6.6,13.4,9.1,19.9,9.1c10.2,0,19.7-6,26.9-11.5l109.8-72.1c8.7-6.6,14.4-16.4,16.1-27.2
				C221.7,0,212.6,0,212.6,0z"/>
			<path class="st2" d="M115.9,28.5l6.4,6.4c0.9,0.9,2,1.3,3.2,1.3s2.3-0.4,3.2-1.3c1.8-1.8,1.8-4.6,0-6.4l-6.4-6.4
				c-1.8-1.8-4.6-1.8-6.4,0C114.1,23.8,114.1,26.7,115.9,28.5z"/>
			<path class="st2" d="M74.5,63.5c-1.8-1.8-4.6-1.8-6.4,0c-1.8,1.8-1.8,4.6,0,6.4l12.7,12.7c0.9,0.9,2,1.3,3.2,1.3s2.3-0.4,3.2-1.3
				c1.8-1.8,1.8-4.6,0-6.4L74.5,63.5z"/>
		</g>
		<g>
			<path class="st2" d="M129.2,752.7l15.3,15.3c0.9,0.9,2,1.3,3.2,1.3s2.3-0.4,3.2-1.3c1.8-1.8,1.8-4.6,0-6.4L135,745.8
				c5.4-4.8,12.3-7.8,19.8-8.3c9.8-0.6,19.5,3,26.6,10l21.8,21.8c7,7,10.7,16.7,10,26.6c-0.1,1.4-0.3,2.8-0.5,4.1h9.1
				c0.2-1.2,0.3-2.3,0.4-3.5c0.8-12.4-3.8-24.6-12.7-33.5l-1.4-1.4l3-3h50.6c7.4,0,13.5-6.1,13.5-13.5s-6.1-13.5-13.5-13.5h-23.6
				l11.4-11.4c5.3-5.3,5.3-13.8,0-19.1s-13.8-5.3-19.1,0L219,712.6V689c0-7.4-6.1-13.5-13.5-13.5S192,681.6,192,689v50.6l-3,3
				l-1.4-1.4c-8.9-8.9-21.1-13.5-33.5-12.7c-12.2,0.8-23.3,6.8-30.8,16.7L87.4,800h10.7L129.2,752.7z M199.7,744.6
				c0.8-0.8,1.3-2,1.3-3.2V689c0-2.5,2-4.5,4.5-4.5s4.5,2,4.5,4.5v34.4c0,1.8,1.1,3.5,2.8,4.2s3.6,0.3,4.9-1l19.1-19.1
				c1.8-1.8,4.6-1.8,6.4,0c0.8,0.9,1.3,2,1.3,3.2s-0.5,2.3-1.3,3.2L224,733c-1.3,1.3-1.7,3.2-1,4.9s2.3,2.8,4.2,2.8h34.4
				c2.5,0,4.5,2,4.5,4.5s-2,4.5-4.5,4.5h-52.4c-1.2,0-2.3,0.5-3.2,1.3l-4.3,4.3l-6.4-6.4L199.7,744.6z"/>
			<path class="st2" d="M163.6,774.4c-1.8-1.8-4.6-1.8-6.4,0c-1.8,1.8-1.8,4.6,0,6.4l6.4,6.4c0.9,0.9,2,1.3,3.2,1.3s2.3-0.4,3.2-1.3
				c1.8-1.8,1.8-4.6,0-6.4L163.6,774.4z"/>
		</g>
	</g>
	<g>
		<g>
			<path class="st2" d="M800,447.6c-7.9-1.5-15.1-5.9-19.8-12.1l-31.9-48.6l10.6-10.6c1.8-1.8,1.8-4.6,0-6.4s-4.6-1.8-6.4,0
				l-9.2,9.2l-35.1-53.5c-11.9-15.6-12.8-25.8-3.4-35.3c9.5-9.5,19.7-8.5,35.5,3.6l59.8,39.2v-10.7l-54.6-35.8
				c-12.1-9.2-30.2-19.5-47.1-2.6c-6.6,6.6-9.1,13.4-9.1,19.9c0,10.2,6,19.7,11.5,26.9l72.1,109.8c6.6,8.7,16.4,14.4,27.2,16.1
				L800,447.6L800,447.6z"/>
			<path class="st2" d="M771.5,350.8l-6.4,6.4c-0.9,0.9-1.3,2-1.3,3.2s0.4,2.3,1.3,3.2c1.8,1.8,4.6,1.8,6.4,0l6.4-6.4
				c1.8-1.8,1.8-4.6,0-6.4C776.2,349,773.3,349,771.5,350.8z"/>
			<path class="st2" d="M736.5,309.4c1.8-1.8,1.8-4.6,0-6.4s-4.6-1.8-6.4,0l-12.7,12.7c-0.9,0.9-1.3,2-1.3,3.2s0.4,2.3,1.3,3.2
				c1.8,1.8,4.6,1.8,6.4,0L736.5,309.4z"/>
		</g>
		<g>
			<path class="st2" d="M47.3,364.1L32,379.4c-0.9,0.9-1.3,2-1.3,3.2s0.4,2.3,1.3,3.2c1.8,1.8,4.6,1.8,6.4,0L54.2,370
				c4.8,5.4,7.8,12.3,8.3,19.8c0.6,9.8-3,19.5-10,26.6l-21.8,21.8c-7,7-16.7,10.7-26.6,10c-1.4-0.1-2.8-0.3-4.1-0.5v9.1
				c1.2,0.2,2.3,0.3,3.5,0.4c12.4,0.8,24.6-3.8,33.5-12.7l1.4-1.4l3,3v50.6c0,7.4,6.1,13.5,13.5,13.5s13.5-6.1,13.5-13.5V473
				l11.4,11.4c5.3,5.3,13.8,5.3,19.1,0c5.3-5.3,5.3-13.8,0-19.1l-11.4-11.4H111c7.4,0,13.5-6.1,13.5-13.5s-6.1-13.5-13.5-13.5H60.4
				l-3-3l1.4-1.4c8.9-8.9,13.5-21.1,12.7-33.5c-0.8-12.2-6.8-23.3-16.7-30.8L0,322.3V333L47.3,364.1z M55.4,434.6
				c0.8,0.8,2,1.3,3.2,1.3H111c2.5,0,4.5,2,4.5,4.5s-2,4.5-4.5,4.5H76.6c-1.8,0-3.5,1.1-4.2,2.8c-0.7,1.7-0.3,3.6,1,4.9l19.1,19.1
				c1.8,1.8,1.8,4.6,0,6.4c-0.9,0.8-2,1.3-3.2,1.3s-2.3-0.5-3.2-1.3L67,459c-1.3-1.3-3.2-1.7-4.9-1s-2.8,2.3-2.8,4.2v34.4
				c0,2.5-2,4.5-4.5,4.5s-4.5-2-4.5-4.5v-52.4c0-1.2-0.5-2.3-1.3-3.2l-4.3-4.3l6.4-6.4L55.4,434.6z"/>
			<path class="st2" d="M25.6,398.5c1.8-1.8,1.8-4.6,0-6.4s-4.6-1.8-6.4,0l-6.4,6.4c-0.9,0.9-1.3,2-1.3,3.2s0.4,2.3,1.3,3.2
				c1.8,1.8,4.6,1.8,6.4,0L25.6,398.5z"/>
		</g>
	</g>
	<g>
		<g>
			<path class="st2" d="M742.9,0.4c0,6.6-2.8,12.9-7.8,17.3c-4.8,4.2-11.2,6.1-17.2,5.3l-38-7.9v-10c0-1.7-1.3-3-3-3s-3,1.3-3,3v8.7
				l-41.8-8.7c-6.8-0.9-11.4-2.5-14.3-5.2h-7.6c0.8,1.4,1.7,2.7,2.8,3.8c4.8,4.8,12.1,6.5,18.1,7.3l85.7,17.8
				c8,1.1,16.1-1.4,22.2-6.7c6.3-5.5,9.8-13.4,9.8-21.8V0h-6L742.9,0.4z"/>
		</g>
		<path class="st2" d="M778,0h-8.5L784,14.5c1.2,1.2,1.2,3.1,0,4.2c-1.2,1.2-3.1,1.2-4.2,0L761.1,0h-8.5l23,23
			c3.5,3.5,9.2,3.5,12.7,0s3.5-9.2,0-12.7L778,0z"/>
		<g>
			<path class="st2" d="M755.1,794c-0.6-0.6-1.3-0.9-2.1-0.9h-4v-6h4c0.8,0,1.6-0.3,2.1-0.9l24.7-24.7c1.2-1.2,3.1-1.2,4.2,0
				c1.2,1.2,1.2,3.1,0,4.2L767.8,782c-0.9,0.9-1.1,2.1-0.7,3.3c0.5,1.1,1.6,1.9,2.8,1.9h18c1.7,0,3,1.3,3,3c0,0.8-0.3,1.6-0.9,2.1
				c-0.6,0.6-1.3,0.9-2.1,0.9h-18c-1.2,0-2.3,0.7-2.8,1.9c-0.5,1.1-0.2,2.4,0.7,3.3l1.7,1.7h8.5l-0.9-0.9h10.8c5,0,9-4,9-9s-4-9-9-9
				h-10.8l11.1-11.1c3.5-3.5,3.5-9.2,0-12.7s-9.2-3.5-12.7,0l-23.8,23.8h-2.8v-1.3c0-8.4-3.6-16.3-9.8-21.8
				c-6.1-5.3-14.2-7.8-22.4-6.7l-85.3,17.7c-10.1,1.4-23.4,5-23.4,21c0,4,0.9,7.3,2.3,9.9h7.6c-2.7-2.4-3.9-5.6-3.9-9.9
				c0-8.9,5.3-13.3,18.4-15.1l83.6-17.4V772c0,0.8,0.3,1.6,0.9,2.1c0.5,0.5,1.3,0.9,2.1,0.9c1.7,0,3-1.3,3-3v-14.9
				c4.8,0.3,9.5,2.2,13.2,5.4c4.9,4.3,7.8,10.6,7.8,17.2v20.1h6v-0.9h2.8l0.9,0.9h8.5L755.1,794z"/>
			<path class="st2" d="M718.9,781.1c-1.7,0-3,1.3-3,3v6c0,0.8,0.3,1.6,0.9,2.1c0.5,0.5,1.3,0.9,2.1,0.9c1.7,0,3-1.3,3-3v-6
				C721.9,782.5,720.6,781.1,718.9,781.1z"/>
			<path class="st2" d="M676.9,784.1c-1.7,0-3,1.3-3,3v6c0,0.8,0.3,1.6,0.9,2.1c0.5,0.5,1.3,0.9,2.1,0.9c1.7,0,3-1.3,3-3v-6
				C679.9,785.5,678.6,784.1,676.9,784.1z"/>
			<path class="st2" d="M634.9,781.1c-1.7,0-3,1.3-3,3v12c0,0.8,0.3,1.6,0.9,2.1c0.5,0.5,1.3,0.9,2.1,0.9c1.7,0,3-1.3,3-3v-12
				C637.9,782.5,636.6,781.1,634.9,781.1z"/>
		</g>
	</g>
	<g>
		<g>
			<path class="st2" d="M799.6,223.6c-6.6,0-12.9-2.8-17.3-7.8c-4.2-4.8-6.1-11.2-5.3-17.2l7.9-38h10c1.7,0,3-1.3,3-3s-1.3-3-3-3
				h-8.7l8.7-41.8c0.9-6.8,2.5-11.4,5.2-14.3v-7.6c-1.4,0.8-2.7,1.7-3.8,2.8c-4.8,4.8-6.5,12.1-7.3,18.1l-17.8,85.7
				c-1.1,8,1.4,16.1,6.7,22.2c5.5,6.3,13.4,9.8,21.8,9.8h0.4v-6L799.6,223.6z"/>
		</g>
		<g>
			<path class="st2" d="M6,235.7c0.6-0.6,0.9-1.3,0.9-2.1v-4h6v4c0,0.8,0.3,1.6,0.9,2.1l24.7,24.7c1.2,1.2,1.2,3.1,0,4.2
				c-1.2,1.2-3.1,1.2-4.2,0L18,248.4c-0.9-0.9-2.1-1.1-3.3-0.7c-1.1,0.5-1.9,1.6-1.9,2.8v18c0,1.7-1.3,3-3,3c-0.8,0-1.6-0.3-2.1-0.9
				c-0.6-0.6-0.9-1.3-0.9-2.1v-18c0-1.2-0.7-2.3-1.9-2.8c-1.1-0.5-2.4-0.2-3.3,0.7L0,250.2v8.5l0.9-0.9v10.8c0,5,4,9,9,9s9-4,9-9
				v-10.8L30,268.9c3.5,3.5,9.2,3.5,12.7,0s3.5-9.2,0-12.7l-23.8-23.8v-2.8h1.3c8.4,0,16.3-3.6,21.8-9.8c5.3-6.1,7.8-14.2,6.7-22.4
				L30.8,112c-1.4-10.1-5-23.4-21-23.4c-4,0-7.3,0.9-9.9,2.3v7.6c2.4-2.7,5.6-3.9,9.9-3.9c8.9,0,13.3,5.3,15.1,18.4l17.4,83.6H27.9
				c-0.8,0-1.6,0.3-2.1,0.9c-0.5,0.5-0.9,1.3-0.9,2.1c0,1.7,1.3,3,3,3h14.9c-0.3,4.8-2.2,9.5-5.4,13.2c-4.3,4.9-10.6,7.8-17.2,7.8
				H0.1v6H1v2.8l-1,0.8v8.5L6,235.7z"/>
			<path class="st2" d="M18.9,199.6c0-1.7-1.3-3-3-3h-6c-0.8,0-1.6,0.3-2.1,0.9c-0.5,0.5-0.9,1.3-0.9,2.1c0,1.7,1.3,3,3,3h6
				C17.5,202.6,18.9,201.2,18.9,199.6z"/>
			<path class="st2" d="M15.9,157.6c0-1.7-1.3-3-3-3h-6c-0.8,0-1.6,0.3-2.1,0.9c-0.5,0.5-0.9,1.3-0.9,2.1c0,1.7,1.3,3,3,3h6
				C14.5,160.6,15.9,159.2,15.9,157.6z"/>
			<path class="st2" d="M18.9,115.6c0-1.7-1.3-3-3-3h-12c-0.8,0-1.6,0.3-2.1,0.9c-0.5,0.5-0.9,1.3-0.9,2.1c0,1.7,1.3,3,3,3h12
				C17.5,118.6,18.9,117.2,18.9,115.6z"/>
		</g>
		<path class="st2" d="M800,258.7v-8.5l-14.5,14.5c-1.2,1.2-3.1,1.2-4.2,0c-1.2-1.2-1.2-3.1,0-4.2l18.7-18.7v-8.5l-23,23
			c-3.5,3.5-3.5,9.2,0,12.7s9.2,3.5,12.7,0L800,258.7z"/>
	</g>
</g>
</svg>
