<?xml version="1.0" ?><svg id="Layer_1" style="enable-background:new 0 0 512 512;" version="1.1" viewBox="0 0 512 512" xml:space="preserve" xmlns="http://www.w3.org/2000/svg" xmlns:xlink="http://www.w3.org/1999/xlink"><style type="text/css">
	.st0{fill:none;stroke:#000000;stroke-width:2;stroke-linecap:round;stroke-linejoin:round;stroke-miterlimit:10;}
	.st1{stroke:#000000;stroke-width:2;stroke-linecap:round;stroke-linejoin:round;stroke-miterlimit:10;}
	.st2{fill:#FFFFFF;}
</style><g><g><path d="M409.45,511H103.78c-24.47,0-44.38-19.91-44.38-44.38L58.17,45.4C58.17,20.91,78.08,1,102.55,1h305.67    c24.47,0,44.38,19.91,44.38,44.38l1.23,421.22C453.83,491.09,433.92,511,409.45,511z M102.55,16.45    c-15.95,0-28.92,12.98-28.92,28.92l1.23,421.22c0,15.98,12.98,28.95,28.92,28.95h305.67c15.95,0,28.92-12.98,28.92-28.93    L437.15,45.4c0-15.97-12.98-28.95-28.92-28.95H102.55z"/></g><g><path d="M403.3,208.71H108.7c-4.27,0-7.73-3.46-7.73-7.73V44.69c0-4.27,3.46-7.73,7.73-7.73H403.3c4.27,0,7.73,3.46,7.73,7.73    v156.29C411.03,205.25,407.57,208.71,403.3,208.71z M116.42,193.25h279.15V52.42H116.42V193.25z"/></g><g><path d="M176.55,294.46h-69.16c-4.27,0-7.73-3.46-7.73-7.73v-51.18c0-4.27,3.46-7.73,7.73-7.73h69.16c4.27,0,7.73,3.46,7.73,7.73    v51.18C184.27,291,180.81,294.46,176.55,294.46z M115.12,279.01h53.7v-35.72h-53.7V279.01z"/></g><g><path d="M299.49,294.46h-69.16c-4.27,0-7.73-3.46-7.73-7.73v-51.18c0-4.27,3.46-7.73,7.73-7.73h69.16c4.27,0,7.73,3.46,7.73,7.73    v51.18C307.22,291,303.76,294.46,299.49,294.46z M238.06,279.01h53.7v-35.72h-53.7V279.01z"/></g><g><path d="M403.3,294.46h-65.39c-4.27,0-7.73-3.46-7.73-7.73v-51.18c0-4.27,3.46-7.73,7.73-7.73h65.39c4.27,0,7.73,3.46,7.73,7.73    v51.18C411.03,291,407.57,294.46,403.3,294.46z M345.64,279.01h49.94v-35.72h-49.94V279.01z"/></g><g><path d="M176.55,386.67h-69.16c-4.27,0-7.73-3.46-7.73-7.73v-51.17c0-4.27,3.46-7.73,7.73-7.73h69.16c4.27,0,7.73,3.46,7.73,7.73    v51.17C184.27,383.21,180.81,386.67,176.55,386.67z M115.12,371.21h53.7V335.5h-53.7V371.21z"/></g><g><path d="M299.49,386.67h-69.16c-4.27,0-7.73-3.46-7.73-7.73v-51.17c0-4.27,3.46-7.73,7.73-7.73h69.16c4.27,0,7.73,3.46,7.73,7.73    v51.17C307.22,383.21,303.76,386.67,299.49,386.67z M238.06,371.21h53.7V335.5h-53.7V371.21z"/></g><g><path d="M299.49,474.27h-69.16c-4.27,0-7.73-3.46-7.73-7.73v-51.17c0-4.27,3.46-7.73,7.73-7.73h69.16c4.27,0,7.73,3.46,7.73,7.73    v51.17C307.22,470.81,303.76,474.27,299.49,474.27z M238.06,458.81h53.7v-35.72h-53.7V458.81z"/></g><g><path d="M176.55,474.27h-69.16c-4.27,0-7.73-3.46-7.73-7.73v-51.17c0-4.27,3.46-7.73,7.73-7.73h69.16c4.27,0,7.73,3.46,7.73,7.73    v51.17C184.27,470.81,180.81,474.27,176.55,474.27z M115.12,458.81h53.7v-35.72h-53.7V458.81z"/></g><g><path d="M403.3,475.19h-63.92c-4.27,0-7.73-3.46-7.73-7.73V332.22c0-4.27,3.46-7.73,7.73-7.73h63.92c4.27,0,7.73,3.46,7.73,7.73    v135.24C411.03,471.73,407.57,475.19,403.3,475.19z M347.11,459.74h48.47V339.95h-48.47V459.74z"/></g><g><path d="M171.07,83.76h13.82v69.67h13.64v13.46H152.9v-13.46h13.88v-48.66c-4.11,4.27-8.73,7.71-13.88,10.32V98.97    C160.26,95.1,166.32,90.03,171.07,83.76z"/><path d="M246.77,113.52l-16.48-3.32c2.69-17.99,11.79-26.99,27.29-26.99c8.37,0,14.74,2.32,19.11,6.97    c4.37,4.65,6.55,10.33,6.55,17.05c0,6.92-2.41,13.7-7.24,20.31c-4.83,6.62-13.91,14.36-27.23,23.21h35.62l-1.33,16.12h-52.76    v-16.12c15.09-12.92,24.51-22.04,28.25-27.38c3.74-5.33,5.61-10.39,5.61-15.18c0-6.84-2.58-10.26-7.73-10.26    c-3.1,0-5.37,1.35-6.79,4.04C248.21,104.68,247.25,108.53,246.77,113.52z"/><path d="M332.68,107.36l-15.7-2.96c4.14-14.13,13.2-21.19,27.17-21.19c7.64,0,13.61,1.98,17.9,5.95    c4.29,3.97,6.43,9.35,6.43,16.15c0,8.69-4.09,14.81-12.25,18.35c9.26,2.94,13.88,9.48,13.88,19.62c0,8.13-2.54,14.31-7.61,18.53    c-5.07,4.23-11.53,6.34-19.38,6.34c-7.04,0-13.16-1.85-18.35-5.55c-5.19-3.7-8.41-9.98-9.66-18.84l16-2.66    c0.8,8.21,4.38,12.32,10.75,12.32c2.94,0,5.27-0.98,7-2.96c1.73-1.97,2.6-4.79,2.6-8.45c0-7.49-4.23-11.23-12.68-11.23l-5.01,0.06    V117.5h5.01c2.69,0,4.81-0.25,6.34-0.75c1.53-0.5,2.81-1.56,3.83-3.17c1.03-1.61,1.54-3.72,1.54-6.34c0-6.68-2.77-10.02-8.3-10.02    C337.34,97.22,334.17,100.6,332.68,107.36z"/></g></g></svg>